<svg xmlns="http://www.w3.org/2000/svg" viewBox="0 0 1280 720" width="1280" height="720" role="img" aria-labelledby="t d" font-family="system-ui, -apple-system, 'Segoe UI', Roboto, Arial, sans-serif">
<title id="t">Κοινές αγορές ενέργειας: το σχέδιο της Κομισιόν</title>
<desc id="d">Πέντε κράτη-μέλη συγκεντρώνουν τη ζήτησή τους σε έναν διαχειριστή αγοράς, που διαπραγματεύεται κοινά με τους προμηθευτές.</desc>
<rect width="1280" height="720" fill="#F4EEFC"/>
<circle cx="1180" cy="90" r="270" fill="#D6C5F0" opacity="0.55"/>
<circle cx="80" cy="690" r="210" fill="#D6C5F0" opacity="0.45"/>
<rect x="493" y="60" width="294" height="50" rx="25" fill="#5727A3"/><text x="521" y="94" font-size="24" font-weight="700" fill="#FFFFFF" textLength="238" lengthAdjust="spacingAndGlyphs">ΕΥΡΩΠΑΪΚΗ ΕΝΩΣΗ</text><text x="41" y="230" font-size="84" font-weight="700" fill="#5727A3" textLength="1198" lengthAdjust="spacingAndGlyphs">Κοινές αγορές ενέργειας</text><text x="294" y="295" font-size="32" font-weight="400" fill="#4A4A46" textLength="691" lengthAdjust="spacingAndGlyphs">συγκέντρωση της ζήτησης των κρατών-μελών</text><line x1="300" y1="390" x2="610" y2="510" stroke="#D6C5F0" stroke-width="6" stroke-linecap="round"/><line x1="300" y1="450" x2="610" y2="510" stroke="#D6C5F0" stroke-width="6" stroke-linecap="round"/><line x1="300" y1="510" x2="610" y2="510" stroke="#D6C5F0" stroke-width="6" stroke-linecap="round"/><line x1="300" y1="570" x2="610" y2="510" stroke="#D6C5F0" stroke-width="6" stroke-linecap="round"/><line x1="300" y1="630" x2="610" y2="510" stroke="#D6C5F0" stroke-width="6" stroke-linecap="round"/><circle cx="300" cy="390" r="22" fill="#9153F4"/><circle cx="300" cy="450" r="22" fill="#9153F4"/><circle cx="300" cy="510" r="22" fill="#9153F4"/><circle cx="300" cy="570" r="22" fill="#9153F4"/><circle cx="300" cy="630" r="22" fill="#9153F4"/><circle cx="680" cy="510" r="74" fill="#5727A3"/><text x="656" y="535" font-size="76" font-weight="800" fill="#FFFFFF" textLength="47" lengthAdjust="spacingAndGlyphs">€</text><path d="M775 510 h60" stroke="#5727A3" stroke-width="12" stroke-linecap="round"/><path d="M817 488 l26 22 l-26 22" fill="none" stroke="#5727A3" stroke-width="12" stroke-linecap="round" stroke-linejoin="round"/><text x="958" y="500" font-size="34" font-weight="700" fill="#111111" textLength="63" lengthAdjust="spacingAndGlyphs">μία</text><text x="860" y="545" font-size="30" font-weight="700" fill="#111111" textLength="260" lengthAdjust="spacingAndGlyphs">διαπραγμάτευση</text>
</svg>
